<?xml version="1.0" encoding="utf-8"?>
<!-- Generator: Adobe Illustrator 26.0.1, SVG Export Plug-In . SVG Version: 6.00 Build 0)  -->
<svg version="1.1" xmlns="http://www.w3.org/2000/svg" xmlns:xlink="http://www.w3.org/1999/xlink" x="0px" y="0px"
	 viewBox="0 0 41.62 115.8" style="enable-background:new 0 0 41.62 115.8;" xml:space="preserve">
<style type="text/css">
	.st0{fill:#FFFFFF;}
</style>
<g id="Layer_1">
</g>
<g id="Layer_2">
	<g>
		<path class="st0" d="M31.89,110.28c0.01,2.54,2.11,4.64,4.71,4.64c2.54-0.01,4.64-2.11,4.64-4.66c-0.01-2.54-2.11-4.64-4.66-4.64
			C33.98,105.63,31.89,107.74,31.89,110.28z"/>
		<g>
			
				<rect x="1.36" y="106.52" transform="matrix(1 -2.151286e-03 2.151286e-03 1 -0.2373 0.033)" class="st0" width="27.74" height="7.61"/>
			<g>
				
					<rect x="1.21" y="36.66" transform="matrix(1 -2.151286e-03 2.151286e-03 1 -0.087 0.0445)" class="st0" width="38.83" height="7.61"/>
			</g>
			<g>
				<path class="st0" d="M28.93,23.23l-1.52,0c1.32-2.16,1.97-4.61,1.96-7.33c-0.01-3.96-1.42-7.34-4.22-10.13
					c-2.81-2.8-6.19-4.2-10.16-4.19C11.04,1.59,7.66,2.99,4.86,5.81C2.06,8.61,0.67,12,0.68,15.96c0.01,2.72,0.67,5.17,2,7.33
					l-1.47,0l0.02,7.03l27.73-0.06L28.93,23.23z M9.86,21.13C8.53,19.8,7.7,17.97,7.7,15.94c0-2.02,0.81-3.85,2.14-5.18
					c1.33-1.32,3.16-2.15,5.18-2.15c2.03,0,3.86,0.81,5.18,2.13c1.33,1.33,2.16,3.16,2.16,5.18c0,2.03-0.81,3.86-2.14,5.19
					c-1.32,1.32-3.15,2.15-5.18,2.15C13.02,23.26,11.19,22.44,9.86,21.13z"/>
			</g>
			<path class="st0" d="M15.21,101.08l-13.87,0.03l-0.02-7.02l13.87-0.03c2.03,0,3.86-0.83,5.18-2.16c1.33-1.33,2.14-3.16,2.14-5.18
				c0-2.02-0.83-3.86-2.16-5.18c-1.32-1.33-3.15-2.14-5.18-2.14L1.3,79.43l-0.02-7.02l13.87-0.03c2.03,0,3.86-0.83,5.18-2.16
				c1.33-1.32,2.14-3.16,2.14-5.18c0-2.02-0.83-3.86-2.16-5.18c-1.32-1.33-3.15-2.14-5.18-2.14L1.25,57.75l-0.02-7.02l27.74-0.06
				l0.02,7.02l-1.5,0c1.32,2.17,1.99,4.62,2,7.33c0.01,3.96-1.38,7.35-4.18,10.16c-0.24,0.24-0.49,0.47-0.74,0.69
				c0.25,0.22,0.5,0.45,0.74,0.69c2.81,2.79,4.21,6.18,4.22,10.14c0.01,3.96-1.38,7.35-4.18,10.16
				C22.56,99.66,19.18,101.07,15.21,101.08z"/>
		</g>
	</g>
</g>
</svg>
